<?xml version="1.0" encoding="UTF-8"?>
<svg xmlns="http://www.w3.org/2000/svg" xmlns:xlink="http://www.w3.org/1999/xlink" width="854" height="480" viewBox="0 0 854 480">
<defs>
<g>
<g id="glyph-0-0">
<path d="M 1.714844 0 L 0.390625 -3.242188 L -0.0195312 -3.242188 L -0.0195312 -3.605469 L 1.636719 -3.605469 L 1.636719 -3.242188 L 1.0625 -3.242188 L 2.074219 -0.761719 L 3.089844 -3.242188 L 2.550781 -3.242188 L 2.550781 -3.605469 L 3.902344 -3.605469 L 3.902344 -3.242188 L 3.5 -3.242188 L 2.171875 0 Z "/>
</g>
<g id="glyph-0-1">
<path d="M 1.523438 -0.167969 C 1.609375 0.199219 1.613281 0.453125 1.527344 0.589844 C 1.460938 0.699219 1.378906 0.753906 1.28125 0.757812 C 1.128906 0.761719 1.023438 0.699219 0.957031 0.570312 C 0.882812 0.421875 0.945312 0.203125 1.144531 -0.0859375 L 0.535156 -1.867188 L 0.160156 -1.867188 L 0.160156 -2.070312 L 0.886719 -2.070312 L 1.4375 -0.429688 C 1.761719 -0.816406 1.941406 -1.144531 1.980469 -1.410156 C 2 -1.535156 1.988281 -1.640625 1.953125 -1.726562 C 1.898438 -1.863281 1.835938 -1.9375 1.765625 -1.960938 L 1.765625 -2.070312 L 2.007812 -2.070312 C 2.171875 -1.984375 2.273438 -1.902344 2.3125 -1.828125 C 2.367188 -1.722656 2.398438 -1.632812 2.398438 -1.566406 C 2.398438 -1.445312 2.324219 -1.261719 2.179688 -1.015625 C 2.125 -0.925781 1.90625 -0.640625 1.523438 -0.167969 Z "/>
</g>
</g>
</defs>
<g fill="rgb(51.372549%, 75.686275%, 40.392157%)" fill-opacity="1">
<use xlink:href="#glyph-0-0" x="30" y="26.445312"/>
</g>
<g fill="rgb(51.372549%, 75.686275%, 40.392157%)" fill-opacity="1">
<use xlink:href="#glyph-0-1" x="34" y="26.445312"/>
</g>
</svg>
