<?xml version="1.0" encoding="UTF-8"?>
<svg xmlns="http://www.w3.org/2000/svg" xmlns:xlink="http://www.w3.org/1999/xlink" width="854" height="480" viewBox="0 0 854 480">
<defs>
<g>
<g id="glyph-0-0">
<path d="M 4.554688 -1.269531 C 4.4375 -0.8125 4.226562 -0.46875 3.921875 -0.246094 C 3.617188 -0.0234375 3.207031 0.0859375 2.695312 0.0859375 C 1.941406 0.0859375 1.347656 -0.121094 0.910156 -0.535156 C 0.476562 -0.949219 0.257812 -1.511719 0.257812 -2.222656 C 0.257812 -2.933594 0.476562 -3.5 0.910156 -3.914062 C 1.347656 -4.328125 1.941406 -4.535156 2.695312 -4.535156 C 2.957031 -4.535156 3.234375 -4.503906 3.519531 -4.441406 C 3.808594 -4.375 4.109375 -4.28125 4.429688 -4.148438 L 4.429688 -3.054688 L 4.050781 -3.054688 C 3.972656 -3.429688 3.832031 -3.710938 3.628906 -3.894531 C 3.421875 -4.082031 3.152344 -4.175781 2.816406 -4.175781 C 2.382812 -4.175781 2.0625 -4.015625 1.851562 -3.695312 C 1.640625 -3.375 1.535156 -2.886719 1.535156 -2.222656 C 1.535156 -1.558594 1.640625 -1.070312 1.851562 -0.75 C 2.0625 -0.433594 2.386719 -0.273438 2.824219 -0.273438 C 3.117188 -0.273438 3.359375 -0.355469 3.550781 -0.523438 C 3.738281 -0.6875 3.875 -0.9375 3.960938 -1.269531 Z "/>
</g>
<g id="glyph-0-1">
<path d="M 2.660156 -0.273438 C 3.039062 -0.273438 3.320312 -0.433594 3.507812 -0.753906 C 3.691406 -1.074219 3.785156 -1.566406 3.785156 -2.222656 C 3.785156 -2.882812 3.691406 -3.375 3.507812 -3.695312 C 3.320312 -4.015625 3.039062 -4.175781 2.660156 -4.175781 C 2.28125 -4.175781 2 -4.011719 1.8125 -3.6875 C 1.625 -3.367188 1.535156 -2.878906 1.535156 -2.222656 C 1.535156 -1.570312 1.625 -1.082031 1.8125 -0.757812 C 2 -0.4375 2.28125 -0.273438 2.660156 -0.273438 M 2.660156 0.0859375 C 1.910156 0.0859375 1.320312 -0.117188 0.894531 -0.527344 C 0.46875 -0.9375 0.257812 -1.503906 0.257812 -2.222656 C 0.257812 -2.941406 0.46875 -3.507812 0.898438 -3.917969 C 1.324219 -4.328125 1.910156 -4.535156 2.660156 -4.535156 C 3.410156 -4.535156 3.996094 -4.332031 4.421875 -3.921875 C 4.847656 -3.511719 5.058594 -2.945312 5.058594 -2.222656 C 5.058594 -1.503906 4.847656 -0.9375 4.421875 -0.527344 C 3.992188 -0.117188 3.40625 0.0859375 2.660156 0.0859375 Z "/>
</g>
<g id="glyph-0-2">
<path d="M 0.257812 0 L 0.257812 -0.359375 L 0.824219 -0.359375 L 0.824219 -4.09375 L 0.257812 -4.09375 L 0.257812 -4.453125 L 2.09375 -4.453125 L 3.367188 -1.597656 L 4.644531 -4.453125 L 6.476562 -4.453125 L 6.476562 -4.09375 L 5.90625 -4.09375 L 5.90625 -0.359375 L 6.476562 -0.359375 L 6.476562 0 L 4.1875 0 L 4.1875 -0.359375 L 4.753906 -0.359375 L 4.753906 -3.757812 L 3.371094 -0.652344 L 2.617188 -0.652344 L 1.242188 -3.757812 L 1.242188 -0.359375 L 1.808594 -0.359375 L 1.808594 0 Z "/>
</g>
<g id="glyph-0-3">
<path d="M -0.046875 0 L -0.046875 -0.359375 L 0.316406 -0.359375 L 1.992188 -4.453125 L 2.707031 -4.453125 L 4.386719 -0.359375 L 4.808594 -0.359375 L 4.808594 0 L 2.722656 0 L 2.722656 -0.359375 L 3.160156 -0.359375 L 2.792969 -1.269531 L 1.117188 -1.269531 L 0.746094 -0.359375 L 1.277344 -0.359375 L 1.277344 0 L -0.046875 0 M 1.265625 -1.632812 L 2.648438 -1.632812 L 1.960938 -3.335938 Z "/>
</g>
<g id="glyph-0-4">
<path d="M 0.269531 0 L 0.269531 -0.359375 L 0.839844 -0.359375 L 0.839844 -4.09375 L 0.269531 -4.09375 L 0.269531 -4.453125 L 1.660156 -4.453125 L 4.351562 -1.300781 L 4.351562 -4.09375 L 3.785156 -4.09375 L 3.785156 -4.453125 L 5.339844 -4.453125 L 5.339844 -4.09375 L 4.769531 -4.09375 L 4.769531 0 L 3.988281 0 L 1.257812 -3.21875 L 1.257812 -0.359375 L 1.824219 -0.359375 L 1.824219 0 Z "/>
</g>
<g id="glyph-0-5">
<path d="M 2.003906 -0.359375 L 2.417969 -0.359375 C 2.886719 -0.359375 3.226562 -0.511719 3.441406 -0.808594 C 3.65625 -1.105469 3.765625 -1.582031 3.765625 -2.230469 C 3.765625 -2.878906 3.65625 -3.351562 3.441406 -3.648438 C 3.226562 -3.945312 2.886719 -4.09375 2.417969 -4.09375 L 2.003906 -4.09375 L 2.003906 -0.359375 M 0.285156 0 L 0.285156 -0.359375 L 0.855469 -0.359375 L 0.855469 -4.09375 L 0.285156 -4.09375 L 0.285156 -4.453125 L 2.570312 -4.453125 C 3.371094 -4.453125 3.984375 -4.265625 4.40625 -3.882812 C 4.832031 -3.5 5.042969 -2.949219 5.042969 -2.230469 C 5.042969 -1.511719 4.832031 -0.957031 4.40625 -0.574219 C 3.980469 -0.191406 3.371094 0 2.570312 0 Z "/>
</g>
<g id="glyph-0-6">
<path d="M 0.472656 -0.214844 L 0.472656 -1.269531 L 0.851562 -1.269531 C 0.90625 -0.9375 1.042969 -0.6875 1.257812 -0.523438 C 1.472656 -0.355469 1.769531 -0.273438 2.152344 -0.273438 C 2.460938 -0.273438 2.695312 -0.332031 2.855469 -0.449219 C 3.015625 -0.566406 3.097656 -0.738281 3.097656 -0.964844 C 3.097656 -1.144531 3.042969 -1.285156 2.933594 -1.382812 C 2.824219 -1.484375 2.597656 -1.578125 2.253906 -1.660156 L 1.585938 -1.824219 C 1.152344 -1.9375 0.84375 -2.09375 0.667969 -2.289062 C 0.492188 -2.488281 0.402344 -2.769531 0.402344 -3.136719 C 0.402344 -3.578125 0.550781 -3.921875 0.84375 -4.167969 C 1.136719 -4.414062 1.546875 -4.535156 2.078125 -4.535156 C 2.335938 -4.535156 2.609375 -4.511719 2.890625 -4.46875 C 3.171875 -4.425781 3.464844 -4.359375 3.765625 -4.273438 L 3.765625 -3.289062 L 3.386719 -3.289062 C 3.328125 -3.59375 3.203125 -3.820312 3.007812 -3.960938 C 2.8125 -4.101562 2.535156 -4.175781 2.175781 -4.175781 C 1.878906 -4.175781 1.660156 -4.121094 1.507812 -4.019531 C 1.359375 -3.917969 1.28125 -3.765625 1.28125 -3.5625 C 1.28125 -3.378906 1.335938 -3.238281 1.4375 -3.140625 C 1.542969 -3.042969 1.796875 -2.945312 2.199219 -2.839844 L 2.867188 -2.675781 C 3.28125 -2.574219 3.582031 -2.410156 3.765625 -2.191406 C 3.953125 -1.972656 4.046875 -1.671875 4.046875 -1.289062 C 4.046875 -0.839844 3.890625 -0.496094 3.582031 -0.265625 C 3.269531 -0.03125 2.8125 0.0859375 2.210938 0.0859375 C 1.921875 0.0859375 1.632812 0.0625 1.34375 0.0117188 C 1.058594 -0.0390625 0.769531 -0.113281 0.472656 -0.214844 Z "/>
</g>
</g>
</defs>
<g fill="rgb(73.333333%, 73.333333%, 73.333333%)" fill-opacity="1">
<use xlink:href="#glyph-0-0" x="30" y="25.737305"/>
<use xlink:href="#glyph-0-1" x="35" y="25.737305"/>
<use xlink:href="#glyph-0-2" x="40" y="25.737305"/>
<use xlink:href="#glyph-0-2" x="47" y="25.737305"/>
<use xlink:href="#glyph-0-3" x="54" y="25.737305"/>
<use xlink:href="#glyph-0-4" x="59" y="25.737305"/>
<use xlink:href="#glyph-0-5" x="65" y="25.737305"/>
<use xlink:href="#glyph-0-6" x="70" y="25.737305"/>
</g>
</svg>
