<?xml version="1.0" encoding="UTF-8"?>
<svg xmlns="http://www.w3.org/2000/svg" xmlns:xlink="http://www.w3.org/1999/xlink" width="854" height="480" viewBox="0 0 854 480">
<defs>
<g>
<g id="glyph-0-0">
<path d="M 1.714844 0 L 0.390625 -3.242188 L -0.0195312 -3.242188 L -0.0195312 -3.605469 L 1.636719 -3.605469 L 1.636719 -3.242188 L 1.0625 -3.242188 L 2.074219 -0.761719 L 3.089844 -3.242188 L 2.550781 -3.242188 L 2.550781 -3.605469 L 3.902344 -3.605469 L 3.902344 -3.242188 L 3.5 -3.242188 L 2.171875 0 Z "/>
</g>
<g id="glyph-0-1">
<path d="M 1.414062 -1.234375 L 1.90625 -1.816406 L 1.589844 -1.816406 L 1.589844 -2.019531 L 2.492188 -2.019531 L 2.492188 -1.816406 L 2.179688 -1.816406 L 1.554688 -1.070312 L 2.285156 -0.203125 L 2.589844 -0.203125 L 2.589844 0 L 1.507812 0 L 1.507812 -0.203125 L 1.808594 -0.203125 L 1.296875 -0.808594 L 0.785156 -0.203125 L 1.089844 -0.203125 L 1.089844 0 L 0.199219 0 L 0.199219 -0.203125 L 0.511719 -0.203125 L 1.15625 -0.96875 L 0.445312 -1.816406 L 0.15625 -1.816406 L 0.15625 -2.019531 L 1.203125 -2.019531 L 1.203125 -1.816406 L 0.921875 -1.816406 Z "/>
</g>
<g id="glyph-0-2">
</g>
<g id="glyph-0-3">
<path d="M 0.734375 -3.140625 L 5.082031 -3.140625 L 5.082031 -2.597656 L 0.734375 -2.597656 L 0.734375 -3.140625 M 0.734375 -1.757812 L 5.082031 -1.757812 L 5.082031 -1.214844 L 0.734375 -1.214844 Z "/>
</g>
</g>
</defs>
<g fill="rgb(34.509804%, 76.862745%, 86.666667%)" fill-opacity="1">
<use xlink:href="#glyph-0-0" x="30" y="26.445312"/>
<use xlink:href="#glyph-0-1" x="34" y="26.445312"/>
<use xlink:href="#glyph-0-2" x="37" y="26.445312"/>
<use xlink:href="#glyph-0-3" x="39" y="26.445312"/>
</g>
</svg>
