<?xml version="1.0" encoding="UTF-8"?>
<svg xmlns="http://www.w3.org/2000/svg" xmlns:xlink="http://www.w3.org/1999/xlink" width="854" height="480" viewBox="0 0 854 480">
<defs>
<g>
<g id="glyph-0-0">
<path d="M 1.804688 -4.875 C 1.628906 -4.875 1.476562 -4.8125 1.355469 -4.6875 C 1.230469 -4.566406 1.171875 -4.414062 1.171875 -4.230469 C 1.171875 -4.054688 1.230469 -3.902344 1.351562 -3.785156 C 1.472656 -3.664062 1.625 -3.605469 1.804688 -3.605469 C 1.984375 -3.605469 2.136719 -3.664062 2.257812 -3.785156 C 2.378906 -3.90625 2.441406 -4.054688 2.441406 -4.230469 C 2.441406 -4.410156 2.378906 -4.558594 2.253906 -4.683594 C 2.128906 -4.8125 1.980469 -4.875 1.804688 -4.875 M 1.804688 -5.359375 C 1.957031 -5.359375 2.101562 -5.332031 2.238281 -5.273438 C 2.378906 -5.214844 2.5 -5.132812 2.597656 -5.027344 C 2.707031 -4.917969 2.789062 -4.800781 2.84375 -4.664062 C 2.898438 -4.53125 2.921875 -4.386719 2.921875 -4.230469 C 2.921875 -3.921875 2.816406 -3.660156 2.597656 -3.445312 C 2.378906 -3.230469 2.113281 -3.121094 1.796875 -3.121094 C 1.480469 -3.121094 1.214844 -3.226562 1.003906 -3.4375 C 0.792969 -3.648438 0.6875 -3.914062 0.6875 -4.230469 C 0.6875 -4.546875 0.796875 -4.8125 1.011719 -5.03125 C 1.226562 -5.25 1.492188 -5.359375 1.804688 -5.359375 Z "/>
</g>
</g>
</defs>
<g fill="rgb(100%, 100%, 100%)" fill-opacity="1">
<use xlink:href="#glyph-0-0" x="30" y="26.704102"/>
</g>
</svg>
