<?xml version="1.0" encoding="UTF-8"?>
<svg xmlns="http://www.w3.org/2000/svg" xmlns:xlink="http://www.w3.org/1999/xlink" width="1920" height="1080" viewBox="0 0 1920 1080">
<defs>
<g>
<g id="glyph-0-0">
<path d="M 1.417969 0.691406 C 1.066406 0.535156 0.800781 0.285156 0.621094 -0.0585938 C 0.441406 -0.398438 0.351562 -0.828125 0.351562 -1.339844 C 0.351562 -1.855469 0.441406 -2.285156 0.621094 -2.625 C 0.800781 -2.96875 1.066406 -3.21875 1.417969 -3.375 L 1.417969 -3.164062 C 1.195312 -3.011719 1.035156 -2.792969 0.9375 -2.515625 C 0.839844 -2.238281 0.792969 -1.847656 0.792969 -1.339844 C 0.792969 -0.835938 0.839844 -0.445312 0.9375 -0.167969 C 1.035156 0.109375 1.195312 0.328125 1.417969 0.480469 Z "/>
</g>
<g id="glyph-0-1">
<path d="M 0.246094 0 L 0.246094 -0.230469 L 0.65625 -0.230469 L 0.65625 -3.007812 L 0.246094 -3.007812 L 0.246094 -3.238281 L 2.898438 -3.238281 L 2.898438 -2.519531 L 2.628906 -2.519531 L 2.628906 -2.972656 L 1.097656 -2.972656 L 1.097656 -1.886719 L 2.203125 -1.886719 L 2.203125 -2.292969 L 2.472656 -2.292969 L 2.472656 -1.21875 L 2.203125 -1.21875 L 2.203125 -1.625 L 1.097656 -1.625 L 1.097656 -0.230469 L 1.617188 -0.230469 L 1.617188 0 Z "/>
</g>
<g id="glyph-0-2">
<path d="M 1.769531 -0.726562 L 1.769531 -1.214844 L 1.253906 -1.214844 C 1.054688 -1.214844 0.910156 -1.171875 0.8125 -1.085938 C 0.714844 -1 0.667969 -0.867188 0.667969 -0.691406 C 0.667969 -0.53125 0.714844 -0.40625 0.8125 -0.308594 C 0.910156 -0.214844 1.046875 -0.167969 1.214844 -0.167969 C 1.378906 -0.167969 1.511719 -0.21875 1.617188 -0.324219 C 1.71875 -0.425781 1.769531 -0.558594 1.769531 -0.726562 M 2.167969 -1.441406 L 2.167969 -0.230469 L 2.523438 -0.230469 L 2.523438 0 L 1.769531 0 L 1.769531 -0.25 C 1.679688 -0.140625 1.578125 -0.0625 1.460938 -0.0117188 C 1.347656 0.0390625 1.210938 0.0625 1.058594 0.0625 C 0.800781 0.0625 0.597656 -0.00390625 0.445312 -0.140625 C 0.296875 -0.277344 0.222656 -0.460938 0.222656 -0.691406 C 0.222656 -0.929688 0.308594 -1.117188 0.480469 -1.246094 C 0.652344 -1.378906 0.894531 -1.445312 1.207031 -1.445312 L 1.769531 -1.445312 L 1.769531 -1.605469 C 1.769531 -1.777344 1.714844 -1.914062 1.609375 -2.011719 C 1.503906 -2.105469 1.351562 -2.15625 1.160156 -2.15625 C 1 -2.15625 0.875 -2.117188 0.78125 -2.046875 C 0.6875 -1.972656 0.628906 -1.867188 0.605469 -1.726562 L 0.398438 -1.726562 L 0.398438 -2.191406 C 0.539062 -2.25 0.671875 -2.296875 0.804688 -2.324219 C 0.933594 -2.355469 1.0625 -2.371094 1.1875 -2.371094 C 1.507812 -2.371094 1.75 -2.289062 1.917969 -2.132812 C 2.085938 -1.972656 2.167969 -1.742188 2.167969 -1.441406 Z "/>
</g>
<g id="glyph-0-3">
<path d="M 2.285156 -0.691406 C 2.226562 -0.445312 2.121094 -0.257812 1.960938 -0.128906 C 1.800781 0 1.589844 0.0625 1.335938 0.0625 C 1 0.0625 0.730469 -0.046875 0.527344 -0.269531 C 0.324219 -0.492188 0.222656 -0.785156 0.222656 -1.15625 C 0.222656 -1.523438 0.324219 -1.816406 0.527344 -2.039062 C 0.730469 -2.257812 1 -2.371094 1.335938 -2.371094 C 1.484375 -2.371094 1.628906 -2.351562 1.773438 -2.320312 C 1.917969 -2.285156 2.0625 -2.234375 2.210938 -2.164062 L 2.210938 -1.574219 L 1.976562 -1.574219 C 1.945312 -1.777344 1.878906 -1.921875 1.777344 -2.015625 C 1.675781 -2.109375 1.53125 -2.15625 1.339844 -2.15625 C 1.125 -2.15625 0.960938 -2.070312 0.851562 -1.902344 C 0.742188 -1.738281 0.6875 -1.488281 0.6875 -1.15625 C 0.6875 -0.820312 0.742188 -0.570312 0.851562 -0.402344 C 0.960938 -0.234375 1.125 -0.152344 1.339844 -0.152344 C 1.511719 -0.152344 1.652344 -0.195312 1.753906 -0.285156 C 1.855469 -0.375 1.925781 -0.511719 1.964844 -0.691406 Z "/>
</g>
<g id="glyph-0-4">
<path d="M 0.433594 -3.023438 C 0.433594 -3.089844 0.457031 -3.148438 0.503906 -3.195312 C 0.554688 -3.246094 0.609375 -3.269531 0.679688 -3.269531 C 0.746094 -3.269531 0.804688 -3.246094 0.851562 -3.195312 C 0.898438 -3.148438 0.925781 -3.089844 0.925781 -3.023438 C 0.925781 -2.953125 0.902344 -2.898438 0.851562 -2.847656 C 0.804688 -2.800781 0.746094 -2.777344 0.679688 -2.777344 C 0.609375 -2.777344 0.554688 -2.800781 0.503906 -2.847656 C 0.457031 -2.898438 0.433594 -2.953125 0.433594 -3.023438 M 0.941406 -0.230469 L 1.320312 -0.230469 L 1.320312 0 L 0.160156 0 L 0.160156 -0.230469 L 0.542969 -0.230469 L 0.542969 -2.074219 L 0.160156 -2.074219 L 0.160156 -2.304688 L 0.941406 -2.304688 Z "/>
</g>
<g id="glyph-0-5">
<path d="M 0.183594 0 L 0.183594 -0.230469 L 0.542969 -0.230469 L 0.542969 -2.074219 L 0.160156 -2.074219 L 0.160156 -2.304688 L 0.941406 -2.304688 L 0.941406 -1.898438 C 1.015625 -2.054688 1.113281 -2.171875 1.230469 -2.25 C 1.347656 -2.328125 1.484375 -2.371094 1.640625 -2.371094 C 1.894531 -2.371094 2.082031 -2.296875 2.203125 -2.152344 C 2.324219 -2.003906 2.382812 -1.777344 2.382812 -1.46875 L 2.382812 -0.230469 L 2.738281 -0.230469 L 2.738281 0 L 1.636719 0 L 1.636719 -0.230469 L 1.980469 -0.230469 L 1.980469 -1.339844 C 1.980469 -1.625 1.945312 -1.816406 1.878906 -1.921875 C 1.808594 -2.027344 1.683594 -2.078125 1.511719 -2.078125 C 1.324219 -2.078125 1.183594 -2.011719 1.085938 -1.875 C 0.988281 -1.742188 0.941406 -1.542969 0.941406 -1.285156 L 0.941406 -0.230469 L 1.289062 -0.230469 L 1.289062 0 Z "/>
</g>
<g id="glyph-0-6">
<path d="M 2.332031 -2.074219 L 2.332031 -0.0507812 C 2.332031 0.28125 2.242188 0.535156 2.058594 0.71875 C 1.878906 0.898438 1.617188 0.988281 1.28125 0.988281 C 1.128906 0.988281 0.984375 0.972656 0.84375 0.945312 C 0.707031 0.917969 0.570312 0.878906 0.445312 0.824219 L 0.445312 0.339844 L 0.652344 0.339844 C 0.679688 0.488281 0.742188 0.597656 0.835938 0.667969 C 0.933594 0.738281 1.074219 0.773438 1.253906 0.773438 C 1.488281 0.773438 1.660156 0.707031 1.769531 0.574219 C 1.878906 0.441406 1.933594 0.234375 1.933594 -0.0507812 L 1.933594 -0.359375 C 1.855469 -0.214844 1.753906 -0.109375 1.636719 -0.0390625 C 1.515625 0.0273438 1.363281 0.0625 1.1875 0.0625 C 0.902344 0.0625 0.671875 -0.0507812 0.492188 -0.273438 C 0.3125 -0.5 0.222656 -0.792969 0.222656 -1.15625 C 0.222656 -1.515625 0.3125 -1.808594 0.492188 -2.035156 C 0.667969 -2.257812 0.902344 -2.371094 1.1875 -2.371094 C 1.363281 -2.371094 1.515625 -2.335938 1.636719 -2.265625 C 1.753906 -2.199219 1.855469 -2.089844 1.933594 -1.945312 L 1.933594 -2.304688 L 2.714844 -2.304688 L 2.714844 -2.074219 L 2.332031 -2.074219 M 1.933594 -1.265625 C 1.933594 -1.542969 1.878906 -1.753906 1.773438 -1.902344 C 1.667969 -2.046875 1.511719 -2.121094 1.3125 -2.121094 C 1.105469 -2.121094 0.949219 -2.039062 0.84375 -1.878906 C 0.742188 -1.714844 0.6875 -1.472656 0.6875 -1.15625 C 0.6875 -0.835938 0.742188 -0.59375 0.84375 -0.433594 C 0.949219 -0.269531 1.105469 -0.1875 1.3125 -0.1875 C 1.511719 -0.1875 1.667969 -0.257812 1.773438 -0.40625 C 1.878906 -0.550781 1.933594 -0.761719 1.933594 -1.039062 Z "/>
</g>
<g id="glyph-0-7">
</g>
<g id="glyph-0-8">
<path d="M 1.097656 -0.230469 L 1.5 -0.230469 C 1.921875 -0.230469 2.246094 -0.351562 2.46875 -0.589844 C 2.695312 -0.832031 2.808594 -1.175781 2.808594 -1.625 C 2.808594 -2.070312 2.695312 -2.414062 2.472656 -2.652344 C 2.246094 -2.890625 1.925781 -3.007812 1.5 -3.007812 L 1.097656 -3.007812 L 1.097656 -0.230469 M 0.246094 0 L 0.246094 -0.230469 L 0.65625 -0.230469 L 0.65625 -3.007812 L 0.246094 -3.007812 L 0.246094 -3.238281 L 1.535156 -3.238281 C 2.09375 -3.238281 2.527344 -3.097656 2.839844 -2.8125 C 3.152344 -2.527344 3.308594 -2.132812 3.308594 -1.625 C 3.308594 -1.113281 3.152344 -0.714844 2.839844 -0.429688 C 2.527344 -0.144531 2.089844 0 1.535156 0 Z "/>
</g>
<g id="glyph-0-9">
<path d="M 2.125 -2.3125 L 2.125 -1.734375 L 1.894531 -1.734375 C 1.886719 -1.847656 1.855469 -1.933594 1.800781 -1.988281 C 1.742188 -2.046875 1.660156 -2.074219 1.550781 -2.074219 C 1.355469 -2.074219 1.203125 -2.007812 1.097656 -1.871094 C 0.996094 -1.734375 0.941406 -1.539062 0.941406 -1.285156 L 0.941406 -0.230469 L 1.402344 -0.230469 L 1.402344 0 L 0.183594 0 L 0.183594 -0.230469 L 0.542969 -0.230469 L 0.542969 -2.078125 L 0.160156 -2.078125 L 0.160156 -2.304688 L 0.941406 -2.304688 L 0.941406 -1.898438 C 1.019531 -2.058594 1.121094 -2.175781 1.242188 -2.253906 C 1.367188 -2.332031 1.515625 -2.371094 1.691406 -2.371094 C 1.757812 -2.371094 1.824219 -2.363281 1.898438 -2.355469 C 1.96875 -2.34375 2.042969 -2.328125 2.125 -2.3125 Z "/>
</g>
<g id="glyph-0-10">
<path d="M 2.410156 -1.109375 L 0.6875 -1.109375 L 0.6875 -1.09375 C 0.6875 -0.78125 0.746094 -0.546875 0.863281 -0.390625 C 0.980469 -0.230469 1.152344 -0.152344 1.382812 -0.152344 C 1.558594 -0.152344 1.699219 -0.199219 1.8125 -0.289062 C 1.925781 -0.382812 2.003906 -0.519531 2.046875 -0.699219 L 2.371094 -0.699219 C 2.304688 -0.445312 2.1875 -0.253906 2.015625 -0.128906 C 1.84375 0 1.621094 0.0625 1.339844 0.0625 C 1.003906 0.0625 0.734375 -0.046875 0.527344 -0.269531 C 0.324219 -0.492188 0.222656 -0.785156 0.222656 -1.15625 C 0.222656 -1.519531 0.320312 -1.8125 0.523438 -2.035156 C 0.722656 -2.257812 0.988281 -2.371094 1.316406 -2.371094 C 1.664062 -2.371094 1.929688 -2.261719 2.117188 -2.046875 C 2.304688 -1.832031 2.402344 -1.519531 2.410156 -1.109375 M 1.9375 -1.339844 C 1.929688 -1.609375 1.871094 -1.8125 1.765625 -1.949219 C 1.664062 -2.085938 1.511719 -2.15625 1.316406 -2.15625 C 1.132812 -2.15625 0.988281 -2.085938 0.882812 -1.949219 C 0.773438 -1.8125 0.710938 -1.609375 0.6875 -1.339844 Z "/>
</g>
<g id="glyph-0-11">
<path d="M 0.480469 -2.074219 L 0.128906 -2.074219 L 0.128906 -2.304688 L 0.480469 -2.304688 L 0.480469 -3.023438 L 0.882812 -3.023438 L 0.882812 -2.304688 L 1.632812 -2.304688 L 1.632812 -2.074219 L 0.882812 -2.074219 L 0.882812 -0.609375 C 0.882812 -0.414062 0.898438 -0.289062 0.9375 -0.234375 C 0.976562 -0.179688 1.042969 -0.152344 1.144531 -0.152344 C 1.25 -0.152344 1.324219 -0.183594 1.375 -0.242188 C 1.421875 -0.304688 1.445312 -0.40625 1.449219 -0.542969 L 1.75 -0.542969 C 1.738281 -0.332031 1.683594 -0.179688 1.578125 -0.0820312 C 1.476562 0.015625 1.320312 0.0625 1.109375 0.0625 C 0.882812 0.0625 0.71875 0.0117188 0.621094 -0.0898438 C 0.527344 -0.191406 0.480469 -0.367188 0.480469 -0.609375 Z "/>
</g>
<g id="glyph-0-12">
<path d="M 1.335938 -0.152344 C 1.550781 -0.152344 1.710938 -0.238281 1.820312 -0.40625 C 1.929688 -0.574219 1.984375 -0.824219 1.984375 -1.15625 C 1.984375 -1.484375 1.929688 -1.734375 1.820312 -1.902344 C 1.710938 -2.070312 1.550781 -2.15625 1.335938 -2.15625 C 1.121094 -2.15625 0.960938 -2.070312 0.851562 -1.902344 C 0.742188 -1.734375 0.6875 -1.484375 0.6875 -1.15625 C 0.6875 -0.824219 0.742188 -0.574219 0.851562 -0.40625 C 0.960938 -0.238281 1.125 -0.152344 1.335938 -0.152344 M 1.335938 0.0625 C 1 0.0625 0.730469 -0.046875 0.527344 -0.269531 C 0.324219 -0.492188 0.222656 -0.785156 0.222656 -1.15625 C 0.222656 -1.523438 0.324219 -1.816406 0.527344 -2.039062 C 0.730469 -2.257812 1 -2.371094 1.335938 -2.371094 C 1.671875 -2.371094 1.945312 -2.257812 2.148438 -2.039062 C 2.351562 -1.816406 2.453125 -1.523438 2.453125 -1.15625 C 2.453125 -0.785156 2.351562 -0.492188 2.148438 -0.269531 C 1.945312 -0.046875 1.671875 0.0625 1.335938 0.0625 Z "/>
</g>
<g id="glyph-0-13">
<path d="M 0.316406 0.691406 L 0.316406 0.480469 C 0.539062 0.328125 0.699219 0.109375 0.796875 -0.167969 C 0.894531 -0.445312 0.941406 -0.835938 0.941406 -1.339844 C 0.941406 -1.847656 0.894531 -2.238281 0.796875 -2.515625 C 0.699219 -2.792969 0.539062 -3.011719 0.316406 -3.164062 L 0.316406 -3.375 C 0.667969 -3.21875 0.933594 -2.96875 1.113281 -2.625 C 1.292969 -2.285156 1.382812 -1.855469 1.382812 -1.339844 C 1.382812 -0.828125 1.292969 -0.398438 1.113281 -0.0585938 C 0.933594 0.285156 0.667969 0.535156 0.316406 0.691406 Z "/>
</g>
</g>
</defs>
<g fill="rgb(73.333333%, 73.333333%, 73.333333%)" fill-opacity="1">
<use xlink:href="#glyph-0-0" x="30" y="24.124023"/>
<use xlink:href="#glyph-0-1" x="32" y="24.124023"/>
<use xlink:href="#glyph-0-2" x="35" y="24.124023"/>
<use xlink:href="#glyph-0-3" x="38" y="24.124023"/>
<use xlink:href="#glyph-0-4" x="40" y="24.124023"/>
<use xlink:href="#glyph-0-5" x="41" y="24.124023"/>
<use xlink:href="#glyph-0-6" x="44" y="24.124023"/>
<use xlink:href="#glyph-0-7" x="47" y="24.124023"/>
<use xlink:href="#glyph-0-8" x="48" y="24.124023"/>
<use xlink:href="#glyph-0-4" x="52" y="24.124023"/>
<use xlink:href="#glyph-0-9" x="53" y="24.124023"/>
<use xlink:href="#glyph-0-10" x="55" y="24.124023"/>
<use xlink:href="#glyph-0-3" x="58" y="24.124023"/>
<use xlink:href="#glyph-0-11" x="60" y="24.124023"/>
<use xlink:href="#glyph-0-4" x="62" y="24.124023"/>
<use xlink:href="#glyph-0-12" x="63" y="24.124023"/>
<use xlink:href="#glyph-0-5" x="66" y="24.124023"/>
<use xlink:href="#glyph-0-13" x="69" y="24.124023"/>
</g>
</svg>
