<?xml version="1.0" encoding="UTF-8"?>
<svg xmlns="http://www.w3.org/2000/svg" xmlns:xlink="http://www.w3.org/1999/xlink" width="1920" height="1080" viewBox="0 0 1920 1080">
<defs>
<g>
<g id="glyph-0-0">
<path d="M 2.128906 0 L 0.484375 -4.019531 L -0.0234375 -4.019531 L -0.0234375 -4.46875 L 2.03125 -4.46875 L 2.03125 -4.019531 L 1.316406 -4.019531 L 2.574219 -0.945312 L 3.832031 -4.019531 L 3.160156 -4.019531 L 3.160156 -4.46875 L 4.839844 -4.46875 L 4.839844 -4.019531 L 4.339844 -4.019531 L 2.695312 0 Z "/>
</g>
<g id="glyph-0-1">
<path d="M 1.753906 -1.53125 L 2.363281 -2.253906 L 1.972656 -2.253906 L 1.972656 -2.503906 L 3.089844 -2.503906 L 3.089844 -2.253906 L 2.703125 -2.253906 L 1.925781 -1.328125 L 2.832031 -0.253906 L 3.210938 -0.253906 L 3.210938 0 L 1.871094 0 L 1.871094 -0.253906 L 2.242188 -0.253906 L 1.609375 -1 L 0.976562 -0.253906 L 1.355469 -0.253906 L 1.355469 0 L 0.25 0 L 0.25 -0.253906 L 0.636719 -0.253906 L 1.433594 -1.203125 L 0.550781 -2.253906 L 0.195312 -2.253906 L 0.195312 -2.503906 L 1.492188 -2.503906 L 1.492188 -2.253906 L 1.144531 -2.253906 Z "/>
</g>
<g id="glyph-0-2">
</g>
<g id="glyph-0-3">
<path d="M 0.914062 -3.894531 L 6.300781 -3.894531 L 6.300781 -3.21875 L 0.914062 -3.21875 L 0.914062 -3.894531 M 0.914062 -2.179688 L 6.300781 -2.179688 L 6.300781 -1.503906 L 0.914062 -1.503906 Z "/>
</g>
<g id="glyph-0-4">
<path d="M 4.425781 -1.339844 C 4.316406 -0.863281 4.109375 -0.5 3.796875 -0.253906 C 3.484375 -0.00390625 3.082031 0.121094 2.589844 0.121094 C 1.941406 0.121094 1.417969 -0.09375 1.023438 -0.523438 C 0.625 -0.953125 0.429688 -1.523438 0.429688 -2.238281 C 0.429688 -2.953125 0.625 -3.523438 1.023438 -3.949219 C 1.417969 -4.378906 1.941406 -4.589844 2.589844 -4.589844 C 2.871094 -4.589844 3.15625 -4.558594 3.433594 -4.492188 C 3.714844 -4.425781 3.996094 -4.328125 4.28125 -4.191406 L 4.28125 -3.046875 L 3.832031 -3.046875 C 3.769531 -3.441406 3.644531 -3.726562 3.445312 -3.90625 C 3.246094 -4.085938 2.964844 -4.175781 2.597656 -4.175781 C 2.179688 -4.175781 1.867188 -4.011719 1.652344 -3.6875 C 1.4375 -3.367188 1.332031 -2.882812 1.332031 -2.238281 C 1.332031 -1.59375 1.4375 -1.105469 1.648438 -0.78125 C 1.863281 -0.457031 2.179688 -0.292969 2.597656 -0.292969 C 2.933594 -0.292969 3.199219 -0.382812 3.398438 -0.554688 C 3.597656 -0.730469 3.730469 -0.992188 3.804688 -1.339844 Z "/>
</g>
<g id="glyph-0-5">
<path d="M 2.589844 -0.292969 C 3.003906 -0.292969 3.316406 -0.457031 3.53125 -0.785156 C 3.742188 -1.113281 3.847656 -1.597656 3.847656 -2.238281 C 3.847656 -2.875 3.742188 -3.359375 3.53125 -3.683594 C 3.316406 -4.011719 3.003906 -4.175781 2.589844 -4.175781 C 2.175781 -4.175781 1.863281 -4.011719 1.648438 -3.683594 C 1.4375 -3.359375 1.332031 -2.875 1.332031 -2.238281 C 1.332031 -1.597656 1.4375 -1.113281 1.652344 -0.785156 C 1.867188 -0.457031 2.179688 -0.292969 2.589844 -0.292969 M 2.589844 0.121094 C 1.941406 0.121094 1.417969 -0.09375 1.023438 -0.523438 C 0.625 -0.953125 0.429688 -1.523438 0.429688 -2.238281 C 0.429688 -2.949219 0.625 -3.519531 1.019531 -3.949219 C 1.414062 -4.375 1.9375 -4.589844 2.589844 -4.589844 C 3.242188 -4.589844 3.765625 -4.375 4.160156 -3.949219 C 4.554688 -3.519531 4.75 -2.949219 4.75 -2.238281 C 4.75 -1.523438 4.554688 -0.953125 4.160156 -0.523438 C 3.765625 -0.09375 3.242188 0.121094 2.589844 0.121094 Z "/>
</g>
<g id="glyph-0-6">
<path d="M 0.484375 -0.25 L 0.484375 -1.289062 L 0.929688 -1.289062 C 0.941406 -0.957031 1.042969 -0.707031 1.242188 -0.542969 C 1.441406 -0.378906 1.730469 -0.292969 2.117188 -0.292969 C 2.464844 -0.292969 2.730469 -0.359375 2.914062 -0.488281 C 3.097656 -0.621094 3.1875 -0.808594 3.1875 -1.058594 C 3.1875 -1.253906 3.121094 -1.414062 2.988281 -1.535156 C 2.855469 -1.65625 2.574219 -1.785156 2.144531 -1.921875 L 1.585938 -2.109375 C 1.199219 -2.234375 0.921875 -2.386719 0.75 -2.574219 C 0.578125 -2.757812 0.492188 -2.992188 0.492188 -3.28125 C 0.492188 -3.6875 0.640625 -4.007812 0.941406 -4.242188 C 1.242188 -4.476562 1.65625 -4.589844 2.1875 -4.589844 C 2.421875 -4.589844 2.667969 -4.558594 2.929688 -4.5 C 3.191406 -4.4375 3.460938 -4.347656 3.738281 -4.230469 L 3.738281 -3.253906 L 3.292969 -3.253906 C 3.28125 -3.542969 3.179688 -3.769531 2.988281 -3.929688 C 2.796875 -4.09375 2.539062 -4.175781 2.210938 -4.175781 C 1.886719 -4.175781 1.640625 -4.117188 1.472656 -4.003906 C 1.308594 -3.886719 1.222656 -3.714844 1.222656 -3.484375 C 1.222656 -3.296875 1.285156 -3.148438 1.414062 -3.035156 C 1.539062 -2.921875 1.792969 -2.804688 2.167969 -2.6875 L 2.785156 -2.496094 C 3.207031 -2.367188 3.511719 -2.199219 3.699219 -2.003906 C 3.882812 -1.804688 3.976562 -1.550781 3.976562 -1.242188 C 3.976562 -0.816406 3.816406 -0.484375 3.492188 -0.242188 C 3.167969 0 2.722656 0.121094 2.152344 0.121094 C 1.863281 0.121094 1.582031 0.0898438 1.308594 0.03125 C 1.03125 -0.03125 0.757812 -0.125 0.484375 -0.25 Z "/>
</g>
<g id="glyph-0-7">
<path d="M 2.746094 1.339844 C 2.0625 1.035156 1.550781 0.550781 1.203125 -0.113281 C 0.855469 -0.773438 0.679688 -1.601562 0.679688 -2.597656 C 0.679688 -3.597656 0.855469 -4.425781 1.203125 -5.089844 C 1.550781 -5.753906 2.0625 -6.238281 2.746094 -6.542969 L 2.746094 -6.128906 C 2.3125 -5.832031 2.003906 -5.414062 1.816406 -4.875 C 1.628906 -4.335938 1.535156 -3.578125 1.535156 -2.597656 C 1.535156 -1.621094 1.628906 -0.867188 1.816406 -0.324219 C 2.003906 0.214844 2.3125 0.632812 2.746094 0.929688 Z "/>
</g>
<g id="glyph-0-8">
<path d="M 3.839844 -3.5 C 3.820312 -4.398438 3.714844 -5.074219 3.523438 -5.53125 C 3.3125 -6.039062 3 -6.292969 2.585938 -6.292969 C 2.171875 -6.292969 1.859375 -6.039062 1.648438 -5.53125 C 1.460938 -5.074219 1.355469 -4.398438 1.335938 -3.5 L 3.839844 -3.5 M 3.839844 -3.046875 L 1.335938 -3.046875 C 1.355469 -2.152344 1.460938 -1.480469 1.652344 -1.023438 C 1.867188 -0.511719 2.175781 -0.257812 2.585938 -0.257812 C 2.996094 -0.257812 3.308594 -0.511719 3.523438 -1.023438 C 3.714844 -1.480469 3.820312 -2.152344 3.839844 -3.046875 M 2.585938 -6.632812 C 3.238281 -6.632812 3.761719 -6.328125 4.15625 -5.714844 C 4.550781 -5.101562 4.746094 -4.289062 4.746094 -3.273438 C 4.746094 -2.257812 4.550781 -1.441406 4.152344 -0.828125 C 3.757812 -0.214844 3.234375 0.09375 2.585938 0.09375 C 1.9375 0.09375 1.417969 -0.214844 1.023438 -0.828125 C 0.625 -1.441406 0.429688 -2.257812 0.429688 -3.273438 C 0.429688 -4.289062 0.625 -5.101562 1.019531 -5.714844 C 1.414062 -6.328125 1.933594 -6.632812 2.585938 -6.632812 Z "/>
</g>
<g id="glyph-0-9">
<path d="M 0.609375 1.339844 L 0.609375 0.929688 C 1.042969 0.632812 1.351562 0.214844 1.539062 -0.324219 C 1.730469 -0.867188 1.824219 -1.621094 1.824219 -2.597656 C 1.824219 -3.578125 1.730469 -4.335938 1.539062 -4.875 C 1.351562 -5.414062 1.042969 -5.832031 0.609375 -6.128906 L 0.609375 -6.542969 C 1.292969 -6.238281 1.808594 -5.753906 2.15625 -5.089844 C 2.503906 -4.425781 2.679688 -3.597656 2.679688 -2.597656 C 2.679688 -1.601562 2.503906 -0.773438 2.15625 -0.113281 C 1.808594 0.550781 1.292969 1.035156 0.609375 1.339844 Z "/>
</g>
</g>
</defs>
<g fill="rgb(33.333333%, 33.333333%, 33.333333%)" fill-opacity="1">
<use xlink:href="#glyph-0-0" x="30" y="27.992188"/>
<use xlink:href="#glyph-0-1" x="35" y="27.992188"/>
<use xlink:href="#glyph-0-2" x="39" y="27.992188"/>
<use xlink:href="#glyph-0-3" x="42" y="27.992188"/>
<use xlink:href="#glyph-0-2" x="49" y="27.992188"/>
<use xlink:href="#glyph-0-0" x="52" y="27.992188"/>
<use xlink:href="#glyph-0-2" x="57" y="27.992188"/>
<use xlink:href="#glyph-0-4" x="60" y="27.992188"/>
<use xlink:href="#glyph-0-5" x="65" y="27.992188"/>
<use xlink:href="#glyph-0-6" x="70" y="27.992188"/>
<use xlink:href="#glyph-0-7" x="74" y="27.992188"/>
</g>
<g fill="rgb(33.333333%, 33.333333%, 33.333333%)" fill-opacity="1">
<use xlink:href="#glyph-0-8" x="77" y="27.992188"/>
</g>
<g fill="rgb(33.333333%, 33.333333%, 33.333333%)" fill-opacity="1">
<use xlink:href="#glyph-0-9" x="82" y="27.992188"/>
</g>
</svg>
